<svg width="54" height="48" viewBox="0 0 54 48" fill="none" xmlns="http://www.w3.org/2000/svg">
<path d="M19.9756 17.8773C20.6717 16.6237 24.7591 12.0017 26.1603 10.7434C26.4621 10.4724 27.6603 9.24341 28.6603 9.24341C29.1603 9.24341 30.1603 10.2434 30.1603 10.2434C30.1603 10.2434 36.6603 16.7428 39.5065 19.9748C41.5802 22.3294 42.1603 23.0901 42.1603 23.7428C42.1603 24.7428 41.1603 25.2428 41.1603 25.2428C41.1603 25.2428 33.6856 30.1347 32.9296 30.5222C32.7335 30.6261 23.1268 30.9247 21.4296 31.0222C21.14 31.2625 10.7614 39.4698 9.42965 40.5938L8.66011 41.2434C8.66011 41.2434 7.16011 43.7434 6.16033 44.7434C4.79647 46.1076 3.57841 46.7066 2.66033 46.7434C2.00967 46.7695 0.98095 46.4113 0.660542 45.7434C0.430353 45.2636 0.463637 44.4431 0.660997 43.6673C0.78056 43.1973 2.07866 41.2434 4.12584 40.5938C5.67634 40.1019 6.87028 39.84 7.16011 39.7434C7.16011 39.7434 18.6601 29.2434 19.431 28.7434C19.5331 27.3055 19.8749 18.0588 19.9756 17.8773Z" stroke="#656666" stroke-linecap="round" stroke-linejoin="round"/>
<path d="M29.7559 9.61278C29.7583 9.61032 29.7608 9.60787 30.841 8.71957C31.9213 7.83127 34.0792 6.05721 35.2195 5.12707C36.3598 4.19693 35.5402 4.75578 36 4.44995M47 18.95C45.5305 20.4208 42.5357 22.0054 42.1602 22.2435" stroke="#656666" stroke-linecap="round" stroke-linejoin="round"/>
<path d="M29.7557 9.61278C29.7581 9.61032 29.7606 9.60787 30.8408 8.71957C31.9211 7.83127 34.079 6.05721 35.2193 5.12707C36.3596 4.19693 35.54 4.75578 35.9998 4.44995M46.9998 18.95C45.5304 20.4208 42.5355 22.0054 42.16 22.2435M26.1601 10.7434C24.7589 12.0017 20.6715 16.6237 19.9755 17.8773C19.8747 18.0588 19.5329 27.3055 19.4308 28.7434C18.6599 29.2434 7.15992 39.7434 7.15992 39.7434C6.87009 39.84 5.67615 40.1019 4.12565 40.5938C2.07847 41.2434 0.78037 43.1973 0.660807 43.6673C0.463447 44.4431 0.430163 45.2636 0.660352 45.7434C0.98076 46.4113 2.00948 46.7695 2.66014 46.7434C3.57822 46.7066 4.79628 46.1076 6.16014 44.7434C7.15992 43.7434 8.65992 41.2434 8.65992 41.2434L9.42946 40.5938C10.7612 39.4698 21.1398 31.2625 21.4295 31.0222C23.1266 30.9247 32.7333 30.6261 32.9295 30.5222C33.6854 30.1347 41.1601 25.2428 41.1601 25.2428C41.1601 25.2428 42.1601 24.7428 42.1601 23.7428C42.1601 23.0901 41.58 22.3294 39.5063 19.9748C36.6601 16.7428 30.1601 10.2434 30.1601 10.2434C30.1601 10.2434 29.1601 9.24341 28.6601 9.24341C27.6601 9.24341 26.462 10.4724 26.1601 10.7434Z" stroke="#656666" stroke-linecap="round" stroke-linejoin="round"/>
<path d="M39.7472 5.53976C38.3091 4.92008 36.3719 4.77417 35.5498 4.77417C35.7682 4.59201 38.0358 2.92164 39.5737 1.98476C40.1294 1.6462 41.3364 1.14182 41.6705 0.994698C41.842 0.919181 42.4962 0.605854 43.4297 0.522189C43.9796 0.472908 44.4711 0.448436 45.3928 1.10027C45.7315 1.33982 46.1158 1.65208 46.7546 2.34249C47.3934 3.0329 48.2605 4.07003 49.0813 5.00568C49.902 5.94133 50.5826 6.94288 50.9297 7.52222C52.5792 10.2758 52.7369 10.3899 52.7369 11.6096C52.7369 11.728 51.9297 14.0222 50.4297 15.5222C49.8172 16.1347 48.8148 17.0547 48.3829 17.5253C47.7586 18.2057 47.3443 18.9718 47.1169 18.7882C46.1169 18.7882 45.6736 16.8731 45.6264 16.4858C45.5 15.45 46.309 13.519 45.3396 12.6695C45.032 12.3999 43.9569 12.7202 43.6602 11.9633C43.3276 11.1148 43.5523 9.61258 42.7395 9.31267C41.841 8.98114 40.1904 9.33657 40.0407 8.4928C39.9287 7.86208 40.1628 7.06206 40.0951 6.18945L40.0947 6.18522C40.0773 5.96053 40.0549 5.67238 39.7472 5.53976Z" fill="#01519C" stroke="#01519C" stroke-linecap="round" stroke-linejoin="round"/>
<path d="M39.7472 5.53976C38.3091 4.92008 36.3719 4.77417 35.5498 4.77417C35.7682 4.59201 38.0358 2.92164 39.5737 1.98476C40.1294 1.6462 41.3364 1.14182 41.6705 0.994698C41.842 0.919181 42.4962 0.605854 43.4297 0.522189C43.9796 0.472908 44.4711 0.448436 45.3928 1.10027C45.7315 1.33982 46.1158 1.65208 46.7546 2.34249C47.3934 3.0329 48.2605 4.07003 49.0813 5.00568C49.902 5.94133 50.5826 6.94288 50.9297 7.52222C52.5792 10.2758 52.7369 10.3899 52.7369 11.6096C52.7369 11.728 51.9297 14.0222 50.4297 15.5222C49.8172 16.1347 48.8148 17.0547 48.3829 17.5253C47.7586 18.2057 47.3443 18.9718 47.1169 18.7882C46.1169 18.7882 45.6736 16.8731 45.6264 16.4858C45.5 15.45 46.309 13.519 45.3396 12.6695C45.032 12.3999 43.9569 12.7202 43.6602 11.9633C43.3276 11.1148 43.5523 9.61258 42.7395 9.31267C41.841 8.98114 40.1904 9.33657 40.0407 8.4928C39.9287 7.86208 40.1628 7.06206 40.0951 6.18945L40.0947 6.18522C40.0773 5.96053 40.0549 5.67238 39.7472 5.53976Z" fill="#01519C" stroke="#01519C" stroke-linecap="round" stroke-linejoin="round"/>
</svg>
