<svg width="24" height="24" viewBox="0 0 24 24" fill="none" xmlns="http://www.w3.org/2000/svg">
<path d="M6.71715 14.8492C7.12027 14.5335 8.33047 13.8515 9.7033 13.118C10.0088 13.6088 10.9405 14.104 11.6919 14.1095C11.5442 14.8519 11.5721 15.2031 11.1881 16.2623C10.7401 17.498 9.65609 18.4815 7.45034 18.0406C5.99293 17.6548 5.37349 15.9014 6.71715 14.8492Z" fill="#000A14"/>
<path d="M12.4175 17.0148C12.2739 16.5844 12.1373 15.4154 12.026 14.1223C12.7239 14.1645 13.7449 13.799 14.1336 13.2965C14.8788 13.7703 15.2811 13.9288 16.2561 14.7214C17.3935 15.646 17.9282 16.8711 16.3177 18.1319C15.1491 18.9172 12.896 18.4491 12.4175 17.0148Z" fill="#000A14"/>
<path d="M17.6711 14.379C17.128 14.2441 15.8006 13.7171 14.3408 13.1009C14.7618 12.6637 14.9038 11.7898 14.5689 11.2657C15.4827 11.0275 15.8707 10.847 17.2533 10.6274C18.8661 10.3713 20.48 10.6723 20.9785 12.4055C21.2 13.5941 19.4813 14.8287 17.6711 14.379Z" fill="#000A14"/>
<path d="M17.4438 9.30276C17.0261 9.60672 15.7848 10.2537 14.3785 10.9475C14.0963 10.4483 13.1886 9.92661 12.4381 9.89965C12.6205 9.16194 12.6092 8.81011 13.0428 7.76245C13.5485 6.54033 14.678 5.58842 16.8613 6.09215C18.2994 6.5195 18.8359 8.2896 17.4438 9.30276Z" fill="#000A14"/>
<path d="M11.6082 6.99397C11.7493 7.4248 11.88 8.58312 11.984 9.87665C11.2864 9.83207 10.2624 10.2051 9.87083 10.7063C9.12839 10.2299 8.72697 10.07 7.75655 9.274C6.62451 8.34542 6.09676 7.11847 7.71446 5.86331C8.88756 5.08207 11.1379 5.55797 11.6082 6.99397Z" fill="#000A14"/>
<path d="M6.22654 9.83425C6.77685 9.95017 8.13311 10.4305 9.62682 10.9954C9.23106 11.4467 9.13904 12.3246 9.50351 12.8364C8.60409 13.1061 8.22673 13.2999 6.85789 13.5671C5.26108 13.879 3.63137 13.6342 3.03447 11.9203C2.74539 10.7407 4.39227 9.44786 6.22654 9.83425Z" fill="#000A14"/>
<path d="M6.71715 14.8492C7.12027 14.5335 8.33047 13.8515 9.7033 13.118C10.0088 13.6088 10.9405 14.104 11.6919 14.1095C11.5442 14.8519 11.5721 15.2031 11.1881 16.2623C10.7401 17.498 9.65609 18.4815 7.45034 18.0406C5.99293 17.6548 5.37349 15.9014 6.71715 14.8492Z" stroke="#323333" stroke-width="0.258368"/>
<path d="M12.4175 17.0148C12.2739 16.5844 12.1373 15.4154 12.026 14.1223C12.7239 14.1645 13.7449 13.799 14.1336 13.2965C14.8788 13.7703 15.2811 13.9288 16.2561 14.7214C17.3935 15.646 17.9282 16.8711 16.3177 18.1319C15.1491 18.9172 12.896 18.4491 12.4175 17.0148Z" stroke="#323333" stroke-width="0.258368"/>
<path d="M17.6711 14.379C17.128 14.2441 15.8006 13.7171 14.3408 13.1009C14.7618 12.6637 14.9038 11.7898 14.5689 11.2657C15.4827 11.0275 15.8707 10.847 17.2533 10.6274C18.8661 10.3713 20.48 10.6723 20.9785 12.4055C21.2 13.5941 19.4813 14.8287 17.6711 14.379Z" stroke="#323333" stroke-width="0.258368"/>
<path d="M17.4438 9.30276C17.0261 9.60672 15.7848 10.2537 14.3785 10.9475C14.0963 10.4483 13.1886 9.92661 12.4381 9.89965C12.6205 9.16194 12.6092 8.81011 13.0428 7.76245C13.5485 6.54033 14.678 5.58842 16.8613 6.09215C18.2994 6.5195 18.8359 8.2896 17.4438 9.30276Z" stroke="#323333" stroke-width="0.258368"/>
<path d="M11.6082 6.99397C11.7493 7.4248 11.88 8.58312 11.984 9.87665C11.2864 9.83207 10.2624 10.2051 9.87083 10.7063C9.12839 10.2299 8.72697 10.07 7.75655 9.274C6.62451 8.34542 6.09676 7.11847 7.71446 5.86331C8.88756 5.08207 11.1379 5.55797 11.6082 6.99397Z" stroke="#323333" stroke-width="0.258368"/>
<path d="M6.22654 9.83425C6.77685 9.95017 8.13311 10.4305 9.62682 10.9954C9.23106 11.4467 9.13904 12.3246 9.50351 12.8364C8.60409 13.1061 8.22673 13.2999 6.85789 13.5671C5.26108 13.879 3.63137 13.6342 3.03447 11.9203C2.74539 10.7407 4.39227 9.44786 6.22654 9.83425Z" stroke="#323333" stroke-width="0.258368"/>
</svg>
