<svg width="63" height="46" viewBox="0 0 63 46" fill="none" xmlns="http://www.w3.org/2000/svg">
<path d="M13.645 32.643C15.0079 31.5758 19.0994 29.2699 23.7408 26.7902C24.7737 28.4493 27.9236 30.1238 30.464 30.1422C29.9648 32.652 30.059 33.8395 28.7607 37.4207C27.2462 41.5983 23.5812 44.9233 16.1238 43.4329C11.1965 42.1284 9.1023 36.2005 13.645 32.643Z" fill="white"/>
<path d="M32.9171 39.9645C32.4318 38.5096 31.97 34.5575 31.5935 30.1855C33.9529 30.328 37.405 29.0925 38.7192 27.3936C41.2385 28.9955 42.5987 29.5312 45.895 32.2109C49.7402 35.337 51.5481 39.4788 46.1032 43.7413C42.1522 46.3963 34.5348 44.8138 32.9171 39.9645Z" fill="white"/>
<path d="M50.6788 31.0534C48.8427 30.5973 44.3551 28.8157 39.4195 26.7324C40.843 25.2541 41.323 22.2995 40.1908 20.5279C43.2802 19.7225 44.592 19.1122 49.2662 18.3698C54.7189 17.5039 60.1755 18.5216 61.8609 24.3814C62.6097 28.3998 56.7989 32.5737 50.6788 31.0534Z" fill="white"/>
<path d="M49.9103 13.8913C48.4983 14.9189 44.3015 17.1064 39.547 19.4518C38.593 17.7641 35.5243 16.0004 32.9867 15.9093C33.6036 13.4152 33.5653 12.2257 35.0311 8.68372C36.741 4.55187 40.5595 1.33361 47.941 3.03665C52.8031 4.48147 54.6169 10.4659 49.9103 13.8913Z" fill="white"/>
<path d="M30.181 6.0856C30.658 7.54215 31.1 11.4583 31.4515 15.8315C29.0929 15.6808 25.6311 16.942 24.3072 18.6363C21.7971 17.0257 20.44 16.4852 17.1591 13.794C13.3318 10.6547 11.5476 6.50649 17.0168 2.26296C20.9829 -0.378303 28.591 1.23066 30.181 6.0856Z" fill="white"/>
<path d="M11.9863 15.6882C13.8469 16.0801 18.4322 17.704 23.4822 19.6138C22.1442 21.1398 21.8331 24.1078 23.0653 25.8382C20.0245 26.7498 18.7487 27.4049 14.1208 28.3086C8.72223 29.3628 3.21241 28.5355 1.19436 22.7407C0.217038 18.7527 5.78491 14.3818 11.9863 15.6882Z" fill="white"/>
<path d="M13.645 32.643C15.0079 31.5758 19.0994 29.2699 23.7408 26.7902C24.7737 28.4493 27.9236 30.1238 30.464 30.1422C29.9648 32.652 30.059 33.8395 28.7607 37.4207C27.2462 41.5983 23.5812 44.9233 16.1238 43.4329C11.1965 42.1284 9.1023 36.2005 13.645 32.643Z" stroke="white" stroke-width="0.873509"/>
<path d="M32.9171 39.9645C32.4318 38.5096 31.97 34.5575 31.5935 30.1855C33.9529 30.328 37.405 29.0925 38.7192 27.3936C41.2385 28.9955 42.5987 29.5312 45.895 32.2109C49.7402 35.337 51.5481 39.4788 46.1032 43.7413C42.1522 46.3963 34.5348 44.8138 32.9171 39.9645Z" stroke="white" stroke-width="0.873509"/>
<path d="M50.6788 31.0534C48.8427 30.5973 44.3551 28.8157 39.4195 26.7324C40.843 25.2541 41.323 22.2995 40.1908 20.5279C43.2802 19.7225 44.592 19.1122 49.2662 18.3698C54.7189 17.5039 60.1755 18.5216 61.8609 24.3814C62.6097 28.3998 56.7989 32.5737 50.6788 31.0534Z" stroke="white" stroke-width="0.873509"/>
<path d="M49.9103 13.8913C48.4983 14.9189 44.3015 17.1064 39.547 19.4518C38.593 17.7641 35.5243 16.0004 32.9867 15.9093C33.6036 13.4152 33.5653 12.2257 35.0311 8.68372C36.741 4.55187 40.5595 1.33361 47.941 3.03665C52.8031 4.48147 54.6169 10.4659 49.9103 13.8913Z" stroke="white" stroke-width="0.873509"/>
<path d="M30.181 6.0856C30.658 7.54215 31.1 11.4583 31.4515 15.8315C29.0929 15.6808 25.6311 16.942 24.3072 18.6363C21.7971 17.0257 20.44 16.4852 17.1591 13.794C13.3318 10.6547 11.5476 6.50649 17.0168 2.26296C20.9829 -0.378303 28.591 1.23066 30.181 6.0856Z" stroke="white" stroke-width="0.873509"/>
<path d="M11.9863 15.6882C13.8469 16.0801 18.4322 17.704 23.4822 19.6138C22.1442 21.1398 21.8331 24.1078 23.0653 25.8382C20.0245 26.7498 18.7487 27.4049 14.1208 28.3086C8.72223 29.3628 3.21241 28.5355 1.19436 22.7407C0.217038 18.7527 5.78491 14.3818 11.9863 15.6882Z" stroke="white" stroke-width="0.873509"/>
</svg>
