<svg width="95" height="70" viewBox="0 0 95 70" fill="none" xmlns="http://www.w3.org/2000/svg">
<path d="M45.2062 38.7001C45.6124 36.7077 48.0495 36.7077 49.5388 36.9421C49.8096 37.1765 49.8096 37.4343 49.8096 37.9969C49.8096 38.1141 48.907 39.5204 47.7787 40.1064C46.8761 40.5752 44.7541 40.9179 45.2062 38.7001Z" fill="#098770"/>
<path d="M35.1868 25.1051C32.9122 24.9176 33.517 28.1522 34.1037 29.793C34.3745 29.9883 35.0243 30.379 35.4576 30.379C35.8909 30.379 36.3602 29.5977 36.5408 29.207C37.0372 27.9179 37.4615 25.2926 35.1868 25.1051Z" fill="#098770"/>
<path d="M45.7476 30.1446C47.589 30.7072 46.4246 33.6605 46.1538 33.6605C45.7025 33.5824 44.7457 33.3793 44.5291 33.1918C44.3124 33.0042 44.0777 32.2542 43.9875 31.9026C43.807 31.0822 43.9062 29.5821 45.7476 30.1446Z" fill="#098770"/>
<path d="M39.9257 34.3638C39.9257 34.1294 38.5718 33.5434 38.4364 33.5434C38.301 33.5434 36.9471 33.895 36.1347 34.8326C35.6834 35.4185 35.3223 36.5905 36.6763 37.0593C38.5066 37.6931 39.9257 34.5982 39.9257 34.3638Z" fill="#098770"/>
<path d="M25.1677 16.4325L23.8138 16.1981C23.8138 23.1128 25.5009 25.5107 29.365 28.8555C31.9375 31.0822 41.8213 34.2466 42.7691 34.5981C43.5273 34.8794 48.9521 36.3171 51.5697 37.0593V35.8873L46.5601 34.4809C43.9876 33.7778 38.7072 32.1298 33.9684 30.0274C29.8017 28.1789 28.9182 27.0272 27.1987 24.7535C25.7298 22.8113 25.0775 18.503 25.1677 16.4325Z" fill="#098770"/>
<path d="M31.4539 19.0534C31.2605 21.8236 28.2907 24.0826 27.3341 23.9331C26.3774 23.7837 26.5217 21.0032 27.6049 18.7764C28.4172 17.2529 29.2207 16.6346 30.1773 16.7841C30.9897 16.911 31.4539 17.3701 31.4539 19.0534Z" fill="#098770"/>
<path d="M23.8138 32.723C27.8756 33.4262 29.6357 31.0822 29.8648 30.3428C29.907 29.5021 25.7093 29.341 23.9492 29.5586C23.0014 29.6758 22.3245 30.2408 22.3245 31.0822C22.3245 31.9026 22.879 32.5612 23.8138 32.723Z" fill="#098770"/>
<path d="M23.5449 15.9037C20.7982 15.0548 19.1706 8.77464 20.8582 7.07779C22.5224 5.40456 23.8609 6.26672 25.0238 7.36322C25.0483 7.38635 25.0918 7.38261 25.1108 7.35586C25.8307 6.34155 26.7791 5.60115 28.1237 5.90314C29.4563 6.20244 29.401 6.93847 29.421 7.67795C29.4218 7.70825 29.4558 7.72961 29.4896 7.7216C30.758 7.42095 31.1826 7.22298 32.4095 7.87472C33.6577 8.53779 33.8001 11.817 32.1023 13.2796C30.4044 14.7422 27.2229 16.3587 26.0006 16.2929C24.7783 16.2271 24.7778 16.2154 23.5449 15.9037Z" fill="#EEAE04"/>
<path d="M52.2064 13.5269C52.6275 13.2043 53.8888 12.5111 55.319 11.7664C55.6301 12.2781 56.5899 12.8015 57.3682 12.8154C57.2071 13.5828 57.2321 13.9469 56.8226 15.04C56.3449 16.3151 55.2111 17.322 52.9309 16.8411C51.4253 16.4253 50.8029 14.6021 52.2064 13.5269Z" fill="#F64B16"/>
<path d="M58.0879 15.833C57.944 15.3856 57.8153 14.1731 57.7142 12.8323C58.4367 12.8837 59.4985 12.5163 59.9067 12.0001C60.6734 12.4991 61.0885 12.6677 62.0898 13.4995C63.2579 14.4698 63.7984 15.7448 62.1161 17.0332C60.8968 17.8338 58.5678 17.3241 58.0879 15.833Z" fill="#F64B16"/>
<path d="M63.5594 13.1604C62.9983 13.0146 61.629 12.4542 60.1235 11.7997C60.5645 11.3514 60.7212 10.4476 60.38 9.90111C61.3293 9.66441 61.7332 9.48167 63.1679 9.26942C64.8415 9.02183 66.5102 9.35144 67.0075 11.1524C67.2239 12.3861 65.4298 13.6461 63.5594 13.1604Z" fill="#F64B16"/>
<path d="M63.3798 7.89925C62.9438 8.20954 61.6507 8.86613 60.1862 9.56931C59.8994 9.04908 58.9648 8.49868 58.1876 8.46249C58.3847 7.70029 58.3768 7.33569 58.8375 6.25517C59.3749 4.9947 60.5555 4.02103 62.8117 4.56688C64.2969 5.02542 64.8331 6.86501 63.3798 7.89925Z" fill="#F64B16"/>
<path d="M57.3598 5.44329C57.5012 5.89115 57.6239 7.09252 57.7174 8.43367C56.9952 8.37981 55.9303 8.75499 55.5191 9.26983C54.7552 8.76815 54.3411 8.59813 53.3446 7.76284C52.182 6.78845 51.6488 5.5116 53.3385 4.22915C54.5624 3.43276 56.8884 3.95052 57.3598 5.44329Z" fill="#F64B16"/>
<path d="M51.7534 8.32638C52.3222 8.45253 53.7219 8.96502 55.2632 9.56665C54.8482 10.0299 54.7432 10.9383 55.1152 11.4725C54.1804 11.7419 53.7874 11.9385 52.3664 12.2003C50.7087 12.5058 49.0231 12.2343 48.4236 10.4522C48.1371 9.22706 49.8574 7.90592 51.7534 8.32638Z" fill="#F64B16"/>
<path d="M37.6302 32.9956L36.0083 32.1271C35.9778 32.1108 35.941 32.1329 35.941 32.1674V34.773C35.941 34.8145 35.9918 34.8345 36.0201 34.8042L37.642 33.0671C37.6625 33.0452 37.6566 33.0098 37.6302 32.9956Z" fill="#01519C"/>
<path d="M46.5243 29.4098V14.4602C46.5243 13.7029 45.9104 13.0891 45.1531 13.0891H37.3122C36.5549 13.0891 35.941 13.7029 35.941 14.4602V24.6302C38.2668 24.9316 38.3524 27.428 36.4769 30.5756L43.845 33.1403C43.2096 30.712 43.577 29.4098 46.5243 29.4098Z" fill="#01519C"/>
<path d="M46.5243 35.8215L40.8977 33.9563L40.8457 34.0407C38.9526 37.1118 38.461 37.9094 35.673 36.7542C35.673 36.7542 35.941 36.9873 35.673 39.9017C35.4051 42.8162 27.3672 43.9819 25.7596 40.0183L25.0506 37.8148C24.9175 37.4011 24.5101 37.1378 24.0786 37.1895C20.1804 37.6561 18.0787 38.2109 15.4948 39.4875C15.1427 39.6615 14.9487 40.0471 15.0118 40.4348C15.3146 42.2945 15.5993 43.5495 16.6499 45.8472C18.7934 50.3937 27.5011 52.9583 34.3334 51.9092C41.1511 50.8622 44.8289 48.2197 46.5135 40.8815C46.5193 40.8562 46.501 40.83 46.4756 40.825C43.1674 40.1663 46.0151 36.3359 46.5243 36.4044V35.8215Z" fill="#01519C"/>
<path d="M48.384 50.3145V14.7572C48.384 13.8359 49.1309 13.0891 50.0522 13.0891H51.4467C51.4869 13.0891 51.5134 13.1313 51.4976 13.1683C50.6687 15.1113 51.2692 16.0571 52.0794 16.7578C52.8842 17.4536 56.7121 18.0358 57.5091 15.1629C57.5238 15.1099 57.6008 15.103 57.621 15.1542C58.2022 16.6273 58.5963 17.1478 59.3462 17.6549C59.5059 17.7629 59.607 17.9402 59.607 18.133V28.3443C59.607 29.2655 60.3539 30.0124 61.2752 30.0124H67.5195C68.4408 30.0124 69.1876 29.2655 69.1876 28.3443V14.9939C69.1876 14.0726 69.9345 13.3258 70.8558 13.3258H78.3318C79.2531 13.3258 80 14.0726 80 14.9938V50.4499C80 51.3808 79.238 52.1316 78.3071 52.1178L70.831 52.007C69.9195 51.9934 69.1876 51.2507 69.1876 50.339V41.3848C69.1876 40.4635 68.4408 39.7167 67.5195 39.7167H61.0014C60.0801 39.7167 59.3333 40.4635 59.3333 41.3848V50.3145C59.3333 51.2358 58.5864 51.9826 57.6651 51.9826H50.0522C49.1309 51.9826 48.384 51.2358 48.384 50.3145Z" fill="#01519C"/>
<path d="M64.7445 51.9159C65.2131 51.7686 61.7046 46.1284 59.8309 44.2378C59.4627 44.6406 59.5634 45.9237 59.5634 45.9237C59.9479 46.4925 62.3231 49.7952 63.3544 51.9224C63.7714 51.9205 64.6138 51.957 64.7445 51.9159Z" fill="#098770"/>
<path d="M9.96744 55.7429C10.1834 55.7429 10.3034 55.8629 10.3514 56.0669L11.2034 59.5589C11.2274 59.6789 11.3234 59.6789 11.3474 59.5589L12.1994 56.0669C12.2474 55.8629 12.3674 55.7429 12.5834 55.7429H15.0674C15.3074 55.7429 15.4274 55.8629 15.4274 56.1029V63.7829C15.4274 64.0109 15.3074 64.1429 15.0674 64.1429H13.7234C13.4954 64.1429 13.3634 64.0109 13.3634 63.7829V59.0549C13.3634 58.9709 13.2554 58.9589 13.2314 59.0429L12.0674 63.8309C12.0194 64.0349 11.8874 64.1429 11.6714 64.1429H10.8794C10.6634 64.1429 10.5314 64.0349 10.4834 63.8309L9.31944 59.0429C9.29544 58.9589 9.18744 58.9709 9.18744 59.0549V63.7829C9.18744 64.0109 9.06744 64.1429 8.82744 64.1429H7.48344C7.24344 64.1429 7.12344 64.0109 7.12344 63.7829V56.1029C7.12344 55.8629 7.24344 55.7429 7.48344 55.7429H9.96744ZM16.4153 55.7429H17.7593C17.9993 55.7429 18.1193 55.8629 18.1193 56.1029V60.8069C18.1193 61.7309 18.1793 62.2949 19.0673 62.2949C19.9553 62.2949 20.0153 61.7309 20.0153 60.8069V56.1029C20.0153 55.8629 20.1473 55.7429 20.3753 55.7429H21.7193C21.9593 55.7429 22.0793 55.8629 22.0793 56.1029V61.4429C22.0793 62.2349 21.9113 64.3589 19.0673 64.3589C16.2233 64.3589 16.0553 62.2349 16.0553 61.4429V56.1029C16.0553 55.8629 16.1873 55.7429 16.4153 55.7429ZM27.7575 61.1309L29.0295 63.4949C29.1975 63.8069 29.0055 64.1429 28.6335 64.1429H27.2655C27.1455 64.1429 27.0375 64.0829 26.9895 63.9749L25.7415 61.5629C25.7175 61.5269 25.6815 61.5029 25.6455 61.5029H25.1655C24.9495 61.5029 24.7935 61.6589 24.7935 61.8749V63.7709C24.7935 63.9869 24.6375 64.1429 24.4215 64.1429H23.0775C22.8615 64.1429 22.7055 63.9869 22.7055 63.7709V56.1149C22.7055 55.8989 22.8615 55.7429 23.0775 55.7429H25.7055C27.8415 55.7429 28.7055 56.6549 28.7055 58.6229C28.7055 59.7389 28.4295 60.5189 27.7935 60.9749C27.7455 61.0109 27.7335 61.0709 27.7575 61.1309ZM25.7775 57.8069H25.1655C24.9495 57.8069 24.7935 57.9629 24.7935 58.1789V59.0669C24.7935 59.2829 24.9495 59.4389 25.1655 59.4389H25.7775C26.3535 59.4389 26.6415 59.3669 26.6415 58.6229C26.6415 57.8789 26.3535 57.8069 25.7775 57.8069ZM35.1388 63.7349C35.1388 63.9989 35.0188 64.1429 34.7787 64.1429H33.4348C33.2068 64.1429 33.0748 64.0229 33.0748 63.7829V62.7389C33.0748 62.4989 32.9548 62.3789 32.7148 62.3789H31.6828C31.4548 62.3789 31.3228 62.4989 31.3228 62.7389V63.7829C31.3228 64.0229 31.2028 64.1429 30.9628 64.1429H29.6188C29.3908 64.1429 29.2588 63.9989 29.2588 63.7349V58.6469C29.2588 57.1349 29.4988 55.5269 32.1988 55.5269C34.8988 55.5269 35.1388 57.1349 35.1388 58.6469V63.7349ZM33.0748 58.6469C33.0748 58.0709 32.9908 57.7829 32.1988 57.7829C31.4068 57.7829 31.3228 58.0709 31.3228 58.6469V59.9549C31.3228 60.1829 31.4548 60.3149 31.6828 60.3149H32.7148C32.9548 60.3029 33.0748 60.1829 33.0748 59.9429V58.6469ZM37.4837 55.7429C37.7237 55.7429 37.8437 55.8629 37.8437 56.1029V61.7189C37.8437 61.9469 37.9757 62.0789 38.2037 62.0789H40.8797C41.1197 62.0789 41.2397 62.1989 41.2397 62.4389V63.7829C41.2397 64.0229 41.1197 64.1429 40.8797 64.1429H36.1397C35.9117 64.1429 35.7797 64.0109 35.7797 63.7829V56.1029C35.7797 55.8629 35.9117 55.7429 36.1397 55.7429H37.4837ZM44.9366 55.7429H47.5766C49.7126 55.7429 50.5766 56.6549 50.5766 58.6229C50.5766 60.5909 49.7126 61.5029 47.5766 61.5029H47.0006C46.7726 61.5029 46.6406 61.6229 46.6406 61.8629V63.7829C46.6406 64.0229 46.5206 64.1429 46.2806 64.1429H44.9366C44.7086 64.1429 44.5766 64.0109 44.5766 63.7829V56.1149C44.5766 55.8749 44.6966 55.7549 44.9366 55.7429ZM47.0006 59.4389H47.6486C48.2246 59.4389 48.5126 59.3669 48.5126 58.6229C48.5126 57.8789 48.2246 57.8069 47.6486 57.8069H47.0006C46.7726 57.8069 46.6406 57.9269 46.6406 58.1669V59.0789C46.6406 59.3069 46.7726 59.4389 47.0006 59.4389ZM55.8668 61.1309L57.1388 63.4949C57.3068 63.8069 57.1148 64.1429 56.7428 64.1429H55.3748C55.2548 64.1429 55.1468 64.0829 55.0988 63.9749L53.8508 61.5629C53.8268 61.5269 53.7908 61.5029 53.7548 61.5029H53.2748C53.0588 61.5029 52.9028 61.6589 52.9028 61.8749V63.7709C52.9028 63.9869 52.7468 64.1429 52.5308 64.1429H51.1868C50.9708 64.1429 50.8148 63.9869 50.8148 63.7709V56.1149C50.8148 55.8989 50.9708 55.7429 51.1868 55.7429H53.8148C55.9508 55.7429 56.8148 56.6549 56.8148 58.6229C56.8148 59.7389 56.5388 60.5189 55.9028 60.9749C55.8548 61.0109 55.8428 61.0709 55.8668 61.1309ZM53.8868 57.8069H53.2748C53.0588 57.8069 52.9028 57.9629 52.9028 58.1789V59.0669C52.9028 59.2829 53.0588 59.4389 53.2748 59.4389H53.8868C54.4628 59.4389 54.7508 59.3669 54.7508 58.6229C54.7508 57.8789 54.4628 57.8069 53.8868 57.8069ZM63.3321 58.4429V61.4429C63.3321 62.2349 63.1641 64.3589 60.3201 64.3589C57.4761 64.3589 57.3081 62.2349 57.3081 61.4429V58.4429C57.3081 57.6509 57.4761 55.5269 60.3201 55.5269C63.1641 55.5269 63.3321 57.6509 63.3321 58.4429ZM61.2681 60.8069V59.0789C61.2681 58.1549 61.2081 57.5909 60.3201 57.5909C59.4321 57.5909 59.3721 58.1549 59.3721 59.0789V60.8069C59.3721 61.7309 59.4321 62.2949 60.3201 62.2949C61.2081 62.2949 61.2681 61.7309 61.2681 60.8069ZM67.7525 55.7429H69.0725C69.2885 55.7429 69.4445 55.8989 69.4445 56.1149V61.4429C69.4445 62.2349 69.2765 64.3589 66.4325 64.3589C63.8765 64.3589 63.4805 62.6429 63.4325 61.7189C63.4205 61.5509 63.5285 61.4189 63.6965 61.3829L65.0285 61.0829C65.2805 61.0349 65.4725 61.2029 65.5085 61.4549C65.5685 61.9829 65.7845 62.2949 66.4325 62.2949C67.3205 62.2949 67.3805 61.7309 67.3805 60.8069V56.1149C67.3805 55.8989 67.5365 55.7429 67.7525 55.7429ZM75.4805 55.7429C75.7205 55.7429 75.8405 55.8629 75.8405 56.1029V57.4469C75.8405 57.6749 75.7205 57.8069 75.4805 57.8069H72.5765C72.3485 57.8069 72.2165 57.9269 72.2165 58.1669V58.5509C72.2165 58.7789 72.3485 58.9109 72.5765 58.9109H74.4365C74.6765 58.9109 74.7965 59.0309 74.7965 59.2709V60.6149C74.7965 60.8429 74.6765 60.9749 74.4365 60.9749H72.5765C72.3485 60.9749 72.2165 61.0949 72.2165 61.3349V61.7189C72.2165 61.9469 72.3485 62.0789 72.5765 62.0789H75.4805C75.7205 62.0789 75.8405 62.1989 75.8405 62.4389V63.7829C75.8405 64.0229 75.7205 64.1429 75.4805 64.1429H70.4405C70.2125 64.1429 70.0805 64.0109 70.0805 63.7829V56.1029C70.0805 55.8629 70.2125 55.7429 70.4405 55.7429H75.4805ZM76.1402 61.4429V58.4429C76.1402 57.6509 76.3082 55.5269 79.1522 55.5269C81.7082 55.5269 82.1042 57.2429 82.1522 58.1669C82.1642 58.3349 82.0562 58.4669 81.8882 58.5029L80.5562 58.8029C80.3042 58.8509 80.1122 58.6829 80.0762 58.4309C80.0162 57.9029 79.8002 57.5909 79.1522 57.5909C78.2642 57.5909 78.2042 58.1549 78.2042 59.0789V60.8069C78.2042 61.7309 78.2642 62.2949 79.1522 62.2949C79.8122 62.2949 79.9922 61.9829 80.0642 61.4309C80.1002 61.1789 80.2922 61.0229 80.5322 61.0829L81.8882 61.3829C82.0562 61.4189 82.1642 61.5509 82.1522 61.7309C82.1042 62.6429 81.7082 64.3589 79.1522 64.3589C76.3082 64.3589 76.1402 62.2349 76.1402 61.4429ZM84.395 58.1669C84.395 57.9269 84.275 57.8069 84.035 57.8069H82.355C82.127 57.8069 81.995 57.6749 81.995 57.4469V56.1029C81.995 55.8629 82.127 55.7429 82.355 55.7429H88.499C88.739 55.7429 88.859 55.8629 88.859 56.1029V57.4469C88.859 57.6749 88.739 57.8069 88.499 57.8069H86.819C86.591 57.8069 86.459 57.9269 86.459 58.1669V63.7829C86.459 64.0109 86.339 64.1429 86.099 64.1429H84.755C84.527 64.1429 84.395 64.0109 84.395 63.7829V58.1669Z" fill="#01519C"/>
</svg>
