<svg width="95" height="70" viewBox="0 0 95 70" fill="none" xmlns="http://www.w3.org/2000/svg">
<path d="M45.2062 36.8429C45.6124 34.8505 48.0495 34.8505 49.5388 35.0849C49.8096 35.3193 49.8096 35.5772 49.8096 36.1397C49.8096 36.2569 48.907 37.6633 47.7787 38.2493C46.8761 38.7181 44.7541 39.0608 45.2062 36.8429Z" fill="#098770"/>
<path d="M35.1868 23.248C32.9122 23.0604 33.517 26.2951 34.1037 27.9359C34.3745 28.1312 35.0243 28.5219 35.4576 28.5219C35.8909 28.5219 36.3602 27.7405 36.5408 27.3499C37.0372 26.0607 37.4615 23.4355 35.1868 23.248Z" fill="#098770"/>
<path d="M45.7476 28.2875C47.589 28.85 46.4246 31.8034 46.1538 31.8034C45.7025 31.7253 44.7457 31.5221 44.5291 31.3346C44.3124 31.1471 44.0777 30.397 43.9875 30.0454C43.807 29.225 43.9062 27.7249 45.7476 28.2875Z" fill="#098770"/>
<path d="M39.9257 32.5066C39.9257 32.2722 38.5718 31.6862 38.4364 31.6862C38.301 31.6862 36.9471 32.0378 36.1347 32.9754C35.6834 33.5614 35.3223 34.7334 36.6763 35.2022C38.5066 35.8359 39.9258 32.741 39.9257 32.5066Z" fill="#098770"/>
<path d="M25.1677 14.5753L23.8138 14.3409C23.8138 21.2556 25.5009 23.6535 29.365 26.9983C31.9375 29.2251 41.8213 32.3894 42.7691 32.741C43.5273 33.0223 48.9521 34.4599 51.5697 35.2022V34.0302L46.5601 32.6238C43.9876 31.9206 38.7072 30.2726 33.9684 28.1703C29.8017 26.3218 28.9182 25.1701 27.1987 22.8964C25.7298 20.9542 25.0775 16.6458 25.1677 14.5753Z" fill="#098770"/>
<path d="M31.4539 17.1962C31.2605 19.9664 28.2907 22.2254 27.3341 22.076C26.3774 21.9266 26.5217 19.1461 27.6049 16.9193C28.4172 15.3957 29.2207 14.7775 30.1773 14.9269C30.9897 15.0538 31.4539 15.5129 31.4539 17.1962Z" fill="#098770"/>
<path d="M23.8138 30.8658C27.8756 31.569 29.6357 29.2251 29.8648 28.4856C29.907 27.645 25.7093 27.4838 23.9492 27.7015C23.0014 27.8187 22.3245 28.3836 22.3245 29.2251C22.3245 30.0455 22.879 30.704 23.8138 30.8658Z" fill="#098770"/>
<path d="M23.5449 14.0466C20.7982 13.1977 19.1706 6.91749 20.8582 5.22065C22.5224 3.54741 23.8609 4.40957 25.0238 5.50607C25.0483 5.5292 25.0918 5.52547 25.1108 5.49872C25.8307 4.4844 26.7791 3.74401 28.1237 4.04599C29.4563 4.34529 29.401 5.08133 29.421 5.82081C29.4218 5.8511 29.4558 5.87246 29.4896 5.86446C30.758 5.5638 31.1826 5.36583 32.4095 6.01758C33.6577 6.68064 33.8001 9.95986 32.1023 11.4225C30.4044 12.8851 27.2229 14.5016 26.0006 14.4358C24.7783 14.37 24.7778 14.3583 23.5449 14.0466Z" fill="#EEAE04"/>
<path d="M52.2064 11.6698C52.6275 11.3472 53.8888 10.6539 55.319 9.90925C55.6301 10.421 56.5899 10.9443 57.3682 10.9582C57.2071 11.7256 57.2321 12.0898 56.8226 13.1829C56.3449 14.458 55.2111 15.4649 52.9309 14.9839C51.4253 14.5682 50.8029 12.745 52.2064 11.6698Z" fill="#F64B16"/>
<path d="M58.0879 13.9758C57.944 13.5285 57.8153 12.316 57.7142 10.9752C58.4367 11.0265 59.4985 10.6592 59.9067 10.1429C60.6735 10.6419 61.0885 10.8105 62.0898 11.6423C63.2579 12.6127 63.7984 13.8877 62.1161 15.176C60.8968 15.9767 58.5678 15.467 58.0879 13.9758Z" fill="#F64B16"/>
<path d="M63.5594 11.3032C62.9983 11.1575 61.629 10.597 60.1235 9.94257C60.5645 9.49425 60.7212 8.59049 60.38 8.04397C61.3293 7.80727 61.7332 7.62452 63.1679 7.41228C64.8415 7.16468 66.5102 7.4943 67.0076 9.29527C67.2239 10.529 65.4298 11.789 63.5594 11.3032Z" fill="#F64B16"/>
<path d="M63.3798 6.0421C62.9438 6.35239 61.6507 7.00898 60.1862 7.71217C59.8994 7.19193 58.9648 6.64154 58.1876 6.60534C58.3847 5.84314 58.3769 5.47854 58.8375 4.39802C59.3749 3.13755 60.5555 2.16388 62.8117 2.70973C64.2969 3.16827 64.8332 5.00786 63.3798 6.0421Z" fill="#F64B16"/>
<path d="M57.3598 3.58615C57.5012 4.034 57.6239 5.23538 57.7174 6.57652C56.9952 6.52267 55.9303 6.89785 55.5191 7.41269C54.7552 6.911 54.3411 6.74098 53.3446 5.90569C52.182 4.9313 51.6488 3.65446 53.3385 2.372C54.5624 1.57561 56.8884 2.09337 57.3598 3.58615Z" fill="#F64B16"/>
<path d="M51.7534 6.46923C52.3222 6.59538 53.722 7.10787 55.2632 7.7095C54.8482 8.17273 54.7432 9.08113 55.1152 9.61535C54.1804 9.88477 53.7874 10.0814 52.3664 10.3432C50.7087 10.6486 49.0231 10.3772 48.4236 8.59505C48.1371 7.36991 49.8574 6.04877 51.7534 6.46923Z" fill="#F64B16"/>
<path d="M37.6302 31.1385L36.0083 30.27C35.9778 30.2537 35.941 30.2757 35.941 30.3103V32.9159C35.941 32.9573 35.9918 32.9774 36.0201 32.9471L37.642 31.21C37.6625 31.1881 37.6566 31.1527 37.6302 31.1385Z" fill="#000A14"/>
<path d="M46.5243 27.5527V12.6031C46.5243 11.8458 45.9104 11.2319 45.1531 11.2319H37.3122C36.5549 11.2319 35.941 11.8458 35.941 12.6031V22.773C38.2668 23.0745 38.3524 25.5709 36.4769 28.7184L43.845 31.2831C43.2096 28.8549 43.577 27.5527 46.5243 27.5527Z" fill="#000A14"/>
<path d="M46.5243 33.9644L40.8977 32.0992L40.8457 32.1835C38.9526 35.2547 38.461 36.0523 35.673 34.897C35.673 34.897 35.941 35.1302 35.673 38.0446C35.4051 40.959 27.3672 42.1248 25.7596 38.1612L25.0506 35.9576C24.9175 35.544 24.5101 35.2807 24.0786 35.3323C20.1804 35.799 18.0787 36.3538 15.4948 37.6304C15.1427 37.8044 14.9487 38.19 15.0118 38.5776C15.3146 40.4373 15.5993 41.6924 16.6499 43.99C18.7934 48.5365 27.5011 51.1012 34.3334 50.052C41.1511 49.0051 44.8289 46.3625 46.5135 39.0243C46.5193 38.999 46.501 38.9729 46.4756 38.9678C43.1674 38.3091 46.0151 34.4787 46.5243 34.5473V33.9644Z" fill="#000A14"/>
<path d="M48.384 48.4574V12.9C48.384 11.9787 49.1309 11.2319 50.0522 11.2319H51.4467C51.4869 11.2319 51.5134 11.2742 51.4976 11.3111C50.6687 13.2541 51.2692 14.2 52.0794 14.9006C52.8842 15.5965 56.7121 16.1787 57.5091 13.3058C57.5238 13.2527 57.6008 13.2459 57.621 13.2971C58.2022 14.7702 58.5963 15.2907 59.3462 15.7978C59.5059 15.9058 59.607 16.0831 59.607 16.2758V26.4871C59.607 27.4084 60.3539 28.1552 61.2752 28.1552H67.5195C68.4408 28.1552 69.1876 27.4084 69.1876 26.4871V13.1367C69.1876 12.2154 69.9345 11.4686 70.8558 11.4686H78.3319C79.2531 11.4686 80 12.2154 80 13.1367V48.5927C80 49.5236 79.238 50.2744 78.3071 50.2606L70.831 50.1498C69.9195 50.1363 69.1876 49.3935 69.1876 48.4819V39.5276C69.1876 38.6063 68.4408 37.8595 67.5195 37.8595H61.0014C60.0802 37.8595 59.3333 38.6063 59.3333 39.5276V48.4574C59.3333 49.3786 58.5864 50.1255 57.6651 50.1255H50.0522C49.1309 50.1255 48.384 49.3786 48.384 48.4574Z" fill="#000A14"/>
<path d="M64.7445 50.0588C65.2131 49.9115 61.7046 44.2712 59.8309 42.3806C59.4627 42.7834 59.5635 44.0665 59.5635 44.0665C59.9479 44.6354 62.3231 47.9381 63.3544 50.0653C63.7714 50.0633 64.6138 50.0998 64.7445 50.0588Z" fill="#098770"/>
<path d="M9.96744 53.8857C10.1834 53.8857 10.3034 54.0057 10.3514 54.2097L11.2034 57.7017C11.2274 57.8217 11.3234 57.8217 11.3474 57.7017L12.1994 54.2097C12.2474 54.0057 12.3674 53.8857 12.5834 53.8857H15.0674C15.3074 53.8857 15.4274 54.0057 15.4274 54.2457V61.9257C15.4274 62.1537 15.3074 62.2857 15.0674 62.2857H13.7234C13.4954 62.2857 13.3634 62.1537 13.3634 61.9257V57.1977C13.3634 57.1137 13.2554 57.1017 13.2314 57.1857L12.0674 61.9737C12.0194 62.1777 11.8874 62.2857 11.6714 62.2857H10.8794C10.6634 62.2857 10.5314 62.1777 10.4834 61.9737L9.31944 57.1857C9.29544 57.1017 9.18744 57.1137 9.18744 57.1977V61.9257C9.18744 62.1537 9.06744 62.2857 8.82744 62.2857H7.48344C7.24344 62.2857 7.12344 62.1537 7.12344 61.9257V54.2457C7.12344 54.0057 7.24344 53.8857 7.48344 53.8857H9.96744ZM16.4153 53.8857H17.7593C17.9993 53.8857 18.1193 54.0057 18.1193 54.2457V58.9497C18.1193 59.8737 18.1793 60.4377 19.0673 60.4377C19.9553 60.4377 20.0153 59.8737 20.0153 58.9497V54.2457C20.0153 54.0057 20.1473 53.8857 20.3753 53.8857H21.7193C21.9593 53.8857 22.0793 54.0057 22.0793 54.2457V59.5857C22.0793 60.3777 21.9113 62.5017 19.0673 62.5017C16.2233 62.5017 16.0553 60.3777 16.0553 59.5857V54.2457C16.0553 54.0057 16.1873 53.8857 16.4153 53.8857ZM27.7575 59.2737L29.0295 61.6377C29.1975 61.9497 29.0055 62.2857 28.6335 62.2857H27.2655C27.1455 62.2857 27.0375 62.2257 26.9895 62.1177L25.7415 59.7057C25.7175 59.6697 25.6815 59.6457 25.6455 59.6457H25.1655C24.9495 59.6457 24.7935 59.8017 24.7935 60.0177V61.9137C24.7935 62.1297 24.6375 62.2857 24.4215 62.2857H23.0775C22.8615 62.2857 22.7055 62.1297 22.7055 61.9137V54.2577C22.7055 54.0417 22.8615 53.8857 23.0775 53.8857H25.7055C27.8415 53.8857 28.7055 54.7977 28.7055 56.7657C28.7055 57.8817 28.4295 58.6617 27.7935 59.1177C27.7455 59.1537 27.7335 59.2137 27.7575 59.2737ZM25.7775 55.9497H25.1655C24.9495 55.9497 24.7935 56.1057 24.7935 56.3217V57.2097C24.7935 57.4257 24.9495 57.5817 25.1655 57.5817H25.7775C26.3535 57.5817 26.6415 57.5097 26.6415 56.7657C26.6415 56.0217 26.3535 55.9497 25.7775 55.9497ZM35.1388 61.8777C35.1388 62.1417 35.0188 62.2857 34.7787 62.2857H33.4348C33.2068 62.2857 33.0748 62.1657 33.0748 61.9257V60.8817C33.0748 60.6417 32.9548 60.5217 32.7148 60.5217H31.6828C31.4548 60.5217 31.3228 60.6417 31.3228 60.8817V61.9257C31.3228 62.1657 31.2028 62.2857 30.9628 62.2857H29.6188C29.3908 62.2857 29.2588 62.1417 29.2588 61.8777V56.7897C29.2588 55.2777 29.4988 53.6697 32.1988 53.6697C34.8988 53.6697 35.1388 55.2777 35.1388 56.7897V61.8777ZM33.0748 56.7897C33.0748 56.2137 32.9908 55.9257 32.1988 55.9257C31.4068 55.9257 31.3228 56.2137 31.3228 56.7897V58.0977C31.3228 58.3257 31.4548 58.4577 31.6828 58.4577H32.7148C32.9548 58.4457 33.0748 58.3257 33.0748 58.0857V56.7897ZM37.4837 53.8857C37.7237 53.8857 37.8437 54.0057 37.8437 54.2457V59.8617C37.8437 60.0897 37.9757 60.2217 38.2037 60.2217H40.8797C41.1197 60.2217 41.2397 60.3417 41.2397 60.5817V61.9257C41.2397 62.1657 41.1197 62.2857 40.8797 62.2857H36.1397C35.9117 62.2857 35.7797 62.1537 35.7797 61.9257V54.2457C35.7797 54.0057 35.9117 53.8857 36.1397 53.8857H37.4837ZM44.9366 53.8857H47.5766C49.7126 53.8857 50.5766 54.7977 50.5766 56.7657C50.5766 58.7337 49.7126 59.6457 47.5766 59.6457H47.0006C46.7726 59.6457 46.6406 59.7657 46.6406 60.0057V61.9257C46.6406 62.1657 46.5206 62.2857 46.2806 62.2857H44.9366C44.7086 62.2857 44.5766 62.1537 44.5766 61.9257V54.2577C44.5766 54.0177 44.6966 53.8977 44.9366 53.8857ZM47.0006 57.5817H47.6486C48.2246 57.5817 48.5126 57.5097 48.5126 56.7657C48.5126 56.0217 48.2246 55.9497 47.6486 55.9497H47.0006C46.7726 55.9497 46.6406 56.0697 46.6406 56.3097V57.2217C46.6406 57.4497 46.7726 57.5817 47.0006 57.5817ZM55.8668 59.2737L57.1388 61.6377C57.3068 61.9497 57.1148 62.2857 56.7428 62.2857H55.3748C55.2548 62.2857 55.1468 62.2257 55.0988 62.1177L53.8508 59.7057C53.8268 59.6697 53.7908 59.6457 53.7548 59.6457H53.2748C53.0588 59.6457 52.9028 59.8017 52.9028 60.0177V61.9137C52.9028 62.1297 52.7468 62.2857 52.5308 62.2857H51.1868C50.9708 62.2857 50.8148 62.1297 50.8148 61.9137V54.2577C50.8148 54.0417 50.9708 53.8857 51.1868 53.8857H53.8148C55.9508 53.8857 56.8148 54.7977 56.8148 56.7657C56.8148 57.8817 56.5388 58.6617 55.9028 59.1177C55.8548 59.1537 55.8428 59.2137 55.8668 59.2737ZM53.8868 55.9497H53.2748C53.0588 55.9497 52.9028 56.1057 52.9028 56.3217V57.2097C52.9028 57.4257 53.0588 57.5817 53.2748 57.5817H53.8868C54.4628 57.5817 54.7508 57.5097 54.7508 56.7657C54.7508 56.0217 54.4628 55.9497 53.8868 55.9497ZM63.3321 56.5857V59.5857C63.3321 60.3777 63.1641 62.5017 60.3201 62.5017C57.4761 62.5017 57.3081 60.3777 57.3081 59.5857V56.5857C57.3081 55.7937 57.4761 53.6697 60.3201 53.6697C63.1641 53.6697 63.3321 55.7937 63.3321 56.5857ZM61.2681 58.9497V57.2217C61.2681 56.2977 61.2081 55.7337 60.3201 55.7337C59.4321 55.7337 59.3721 56.2977 59.3721 57.2217V58.9497C59.3721 59.8737 59.4321 60.4377 60.3201 60.4377C61.2081 60.4377 61.2681 59.8737 61.2681 58.9497ZM67.7525 53.8857H69.0725C69.2885 53.8857 69.4445 54.0417 69.4445 54.2577V59.5857C69.4445 60.3777 69.2765 62.5017 66.4325 62.5017C63.8765 62.5017 63.4805 60.7857 63.4325 59.8617C63.4205 59.6937 63.5285 59.5617 63.6965 59.5257L65.0285 59.2257C65.2805 59.1777 65.4725 59.3457 65.5085 59.5977C65.5685 60.1257 65.7845 60.4377 66.4325 60.4377C67.3205 60.4377 67.3805 59.8737 67.3805 58.9497V54.2577C67.3805 54.0417 67.5365 53.8857 67.7525 53.8857ZM75.4805 53.8857C75.7205 53.8857 75.8405 54.0057 75.8405 54.2457V55.5897C75.8405 55.8177 75.7205 55.9497 75.4805 55.9497H72.5765C72.3485 55.9497 72.2165 56.0697 72.2165 56.3097V56.6937C72.2165 56.9217 72.3485 57.0537 72.5765 57.0537H74.4365C74.6765 57.0537 74.7965 57.1737 74.7965 57.4137V58.7577C74.7965 58.9857 74.6765 59.1177 74.4365 59.1177H72.5765C72.3485 59.1177 72.2165 59.2377 72.2165 59.4777V59.8617C72.2165 60.0897 72.3485 60.2217 72.5765 60.2217H75.4805C75.7205 60.2217 75.8405 60.3417 75.8405 60.5817V61.9257C75.8405 62.1657 75.7205 62.2857 75.4805 62.2857H70.4405C70.2125 62.2857 70.0805 62.1537 70.0805 61.9257V54.2457C70.0805 54.0057 70.2125 53.8857 70.4405 53.8857H75.4805ZM76.1402 59.5857V56.5857C76.1402 55.7937 76.3082 53.6697 79.1522 53.6697C81.7082 53.6697 82.1042 55.3857 82.1522 56.3097C82.1642 56.4777 82.0562 56.6097 81.8882 56.6457L80.5562 56.9457C80.3042 56.9937 80.1122 56.8257 80.0762 56.5737C80.0162 56.0457 79.8002 55.7337 79.1522 55.7337C78.2642 55.7337 78.2042 56.2977 78.2042 57.2217V58.9497C78.2042 59.8737 78.2642 60.4377 79.1522 60.4377C79.8122 60.4377 79.9922 60.1257 80.0642 59.5737C80.1002 59.3217 80.2922 59.1657 80.5322 59.2257L81.8882 59.5257C82.0562 59.5617 82.1642 59.6937 82.1522 59.8737C82.1042 60.7857 81.7082 62.5017 79.1522 62.5017C76.3082 62.5017 76.1402 60.3777 76.1402 59.5857ZM84.395 56.3097C84.395 56.0697 84.275 55.9497 84.035 55.9497H82.355C82.127 55.9497 81.995 55.8177 81.995 55.5897V54.2457C81.995 54.0057 82.127 53.8857 82.355 53.8857H88.499C88.739 53.8857 88.859 54.0057 88.859 54.2457V55.5897C88.859 55.8177 88.739 55.9497 88.499 55.9497H86.819C86.591 55.9497 86.459 56.0697 86.459 56.3097V61.9257C86.459 62.1537 86.339 62.2857 86.099 62.2857H84.755C84.527 62.2857 84.395 62.1537 84.395 61.9257V56.3097Z" fill="#000A14"/>
</svg>
