<svg width="64" height="64" viewBox="0 0 64 64" fill="none" xmlns="http://www.w3.org/2000/svg">
<path d="M43.4637 54.6983C44.0902 51.6248 47.8496 51.6248 50.147 51.9864C50.5648 52.348 50.5648 52.7457 50.5648 53.6135C50.5648 53.7943 49.1724 55.9638 47.4319 56.8678C46.0396 57.591 42.7662 58.1196 43.4637 54.6983Z" fill="#098770"/>
<path d="M28.0083 33.7265C24.4995 33.4372 25.4324 38.427 26.3375 40.9581C26.7552 41.2594 27.7577 41.8621 28.426 41.8621C29.0943 41.8621 29.8184 40.6568 30.0969 40.0542C30.8627 38.0655 31.5171 34.0157 28.0083 33.7265Z" fill="#098770"/>
<path d="M44.2991 41.5005C47.1395 42.3683 45.3434 46.9242 44.9257 46.9242C44.2295 46.8037 42.7535 46.4903 42.4194 46.2011C42.0852 45.9118 41.7232 44.7547 41.584 44.2124C41.3055 42.9468 41.4586 40.6327 44.2991 41.5005Z" fill="#098770"/>
<path d="M35.3182 48.009C35.3182 47.6474 33.2297 46.7435 33.0208 46.7435C32.812 46.7435 30.7234 47.2858 29.4703 48.7322C28.7741 49.6361 28.2171 51.444 30.3057 52.1672C33.1292 53.1448 35.3183 48.3706 35.3182 48.009Z" fill="#098770"/>
<path d="M12.5529 20.3479L10.4644 19.9863C10.4644 30.653 13.0668 34.3521 19.0275 39.5118C22.9958 42.9468 38.2423 47.8282 39.7043 48.3706C40.8739 48.8045 49.242 51.0222 53.2799 52.1672V50.3593L45.5522 48.1898C41.584 47.105 33.4386 44.5628 26.1286 41.3197C19.7012 38.4681 18.3383 36.6915 15.6858 33.1841C13.42 30.188 12.4137 23.5419 12.5529 20.3479Z" fill="#098770"/>
<path d="M22.2498 24.3909C21.9514 28.6643 17.3704 32.1491 15.8947 31.9186C14.419 31.688 14.6415 27.3988 16.3124 23.9637C17.5655 21.6134 18.8049 20.6597 20.2806 20.8903C21.5337 21.086 22.2498 21.7942 22.2498 24.3909Z" fill="#098770"/>
<path d="M10.4644 45.4779C16.7301 46.5627 19.4452 42.9468 19.7984 41.8062C19.8635 40.5093 13.3883 40.2608 10.6733 40.5966C9.21127 40.7774 8.16699 41.6488 8.16699 42.9468C8.16699 44.2124 9.02246 45.2283 10.4644 45.4779Z" fill="#098770"/>
<path d="M10.0496 19.5322C5.81274 18.2227 3.30191 8.53477 5.90527 5.91719C8.47241 3.33603 10.5371 4.66601 12.331 6.35749C12.3688 6.39317 12.4359 6.38741 12.4652 6.34614C13.5757 4.78145 15.0387 3.6393 17.1128 4.10515C19.1683 4.56685 19.0831 5.70227 19.1139 6.84301C19.1152 6.88974 19.1677 6.92269 19.2198 6.91034C21.1764 6.44655 21.8314 6.14115 23.724 7.14655C25.6494 8.1694 25.8691 13.228 23.25 15.4843C20.631 17.7405 15.7232 20.2341 13.8378 20.1326C11.9523 20.0312 11.9515 20.0131 10.0496 19.5322Z" fill="#EEAE04"/>
<path d="M59.1025 59.5982C59.7317 59.4035 54.3064 48.9112 52.8157 50.5175C52.3213 51.0501 52.8157 51.9143 52.8157 51.9143C54.2127 52.6128 57.0069 56.8041 57.4638 59.9998C58.0236 59.9972 58.9271 59.6525 59.1025 59.5982Z" fill="#098770"/>
</svg>
